<?xml version="1.0" encoding="utf-8"?>
<!-- Generator: Adobe Illustrator 21.0.0, SVG Export Plug-In . SVG Version: 6.00 Build 0)  -->
<svg xmlns="http://www.w3.org/2000/svg" xmlns:xlink="http://www.w3.org/1999/xlink" version="1.1" id="Capa_1" x="0px" y="0px" viewBox="0 0 510.9 510.9" style="enable-background:new 0 0 510.9 510.9;" fill="#fff" xml:space="preserve" width="512" height="512">
<g>
	<path d="M54.2,178.6l30.7,263c0,0.1,0,0.1,0,0.2c2.8,21.5,8.6,36.7,18.5,47.9c12.4,14.1,30.9,21.2,55,21.2h190.2   c24.9,0,44.1-7.3,57.1-21.7c10.6-11.8,16.9-27.6,19.7-49.7c0,0,0-0.1,0-0.1l31.3-260.7L54.2,178.6L54.2,178.6z M188.1,432.1   c0,8.3-6.7,15-15,15s-15-6.7-15-15v-182c0-8.3,6.7-15,15-15s15,6.7,15,15V432.1z M270.4,432.1c0,8.3-6.7,15-15,15s-15-6.7-15-15   v-182c0-8.3,6.7-15,15-15s15,6.7,15,15V432.1z M352.8,432.1c0,8.3-6.7,15-15,15s-15-6.7-15-15v-182c0-8.3,6.7-15,15-15   s15,6.7,15,15V432.1z"/>
	<path d="M412.4,63.6H371c-1.2-11.5-3.5-21.7-6.8-30.2C355.8,11.9,340,0,319.8,0L185.4,0c-28.3,0.2-46.7,23.6-51,63.6h-36   c-37.6,0-68,28.5-68,63.7v6.3c0,8.3,6.7,15,15,15h420c8.3,0,15-6.7,15-15v-6.3C480.4,92.1,450,63.6,412.4,63.6z M185.5,30h134.3   c13.6,0,19,17.4,21,33.6H164.7C166.7,48.2,172,30.1,185.5,30z"/>
</g>
</svg>
