<svg id="Capa_1" enable-background="new 0 0 512 512" height="512" viewBox="0 0 512 512" width="512" fill="#fff" xmlns="http://www.w3.org/2000/svg"><g><path d="m196.026 71.234h118.946v29.104h-118.946z"/><path d="m166.026 171.573h178.947c26.867 0 48.726-21.854 48.734-48.72v-59.119c0-35.2-28.535-63.734-63.734-63.734h-148.946c-35.2 0-63.734 28.535-63.734 63.734v59.119c.007 26.866 21.866 48.72 48.733 48.72zm0-104.716c0-14.129 11.494-25.623 25.623-25.623h127.701c14.128 0 25.622 11.494 25.622 25.623v37.858c0 14.129-11.494 25.623-25.622 25.623h-127.701c-14.129 0-25.623-11.494-25.623-25.623z"/><path d="m361.076 412.363v-30h37.719c2.32-11.538 7.269-22.13 14.183-31.143h-8.647c-5.867 0-10.623-4.756-10.623-10.623v-122.157-33.831c-9.674 7.649-21.177 13.07-33.734 15.509v107.224h-30v-105.769h-102.172v56.238h-30v-56.238h-31.775c-18.392 0-35.317-6.356-48.734-16.964v119.893c0 17.6-14.267 31.867-31.867 31.867h-85.426v46.706h93.399c35.898 0 65-29.102 65-65v-5.939h30v5.939c0 52.467-42.533 95-95 95h-16.027c-5.685 0-11.268 1.577-16.083 4.599-13.872 8.707-23.049 23.92-23.049 41.69v51.377l31.739.367v-51.158h30v51.504l47.269.546v-35.555c0-18.191 14.747-32.938 32.938-32.938h12.079c35.199 0 63.734-28.535 63.734-63.734 0 35.2 28.535 63.734 63.734 63.734h93.243c-6.914-9.013-11.863-19.605-14.183-31.143h-37.717z"/><circle cx="465.858" cy="397.363" r="46.142"/></g></svg>